<?xml version="1.0" standalone="no"?><!DOCTYPE svg PUBLIC "-//W3C//DTD SVG 1.1//EN" "http://www.w3.org/Graphics/SVG/1.1/DTD/svg11.dtd"><svg t="1715914484235" class="icon" viewBox="0 0 1024 1024" version="1.1" xmlns="http://www.w3.org/2000/svg" p-id="14276" xmlns:xlink="http://www.w3.org/1999/xlink" width="200" height="200"><path d="M775.358595 569.932434c20.002566-39.477107 30.143531-81.459267 30.143531-124.777865 0-43.303248-10.143011-85.274152-30.143531-124.745119-19.151176-37.794791-46.478568-71.663156-81.224929-100.666724-70.63985-58.965973-164.312276-91.439572-263.762289-91.439572-99.447966 0-193.118346 32.473599-263.758196 91.439572-34.746362 29.003568-62.073754 62.871933-81.224929 100.666724-20.00052 39.470967-30.142507 81.44187-30.142507 124.758422 0.046049 76.812433 32.899294 150.828171 92.5253 208.503754 1.162476 2.208295 7.243985 16.452717 5.812379 70.463842-0.843204 31.79924-3.897773 60.779272-3.943822 61.214177l-5.064342 47.403636 39.890522-26.106588c0.249687-0.163729 25.272593-16.512069 53.645804-32.601512 46.888913-26.590612 62.995753-29.861098 66.378803-30.260188 40.311101 12.107759 82.652442 18.246573 125.879965 18.246573 99.457176 0 193.129602-32.469506 263.762289-91.427292C728.880027 641.602753 756.209466 607.731318 775.358595 569.932434zM430.371376 716.860784c-39.33896 0-77.804017-5.643534-114.323768-16.771989-3.329838-1.01512-6.978948-1.529843-10.849092-1.529843-11.900028 0-32.822546 4.118807-89.455381 36.243459-6.175653 3.5038-12.161994 6.994298-17.781992 10.333346 0.387833-7.568373 0.704035-15.662725 0.873903-23.931039 1.442862-70.071915-8.850575-89.604784-19.107173-99.467409-51.104935-49.174979-79.272461-111.890346-79.311347-176.582741 0-149.805888 148.017148-271.680633 329.953827-271.680633 181.939749 0 329.958944 121.875768 329.958944 271.680633C760.331343 594.974783 612.311125 716.860784 430.371376 716.860784z" fill="#129d69" p-id="14277"></path><path d="M966.419072 506.271532c0-45.414329-11.114129-89.25686-33.037441-130.309858-20.985964-39.298028-50.765197-74.043367-88.511893-103.272062-9.863648-7.635911-24.047696-5.831822-31.68463 4.02978s-5.831822 24.048719 4.02978 31.685653c32.67826 25.303292 58.356083 55.190997 76.32227 88.834234 18.389836 34.435277 27.713178 71.119781 27.713178 109.018949-0.037862 64.704674-28.204365 127.422088-79.298044 176.582741-10.264784 9.859555-20.564361 29.386284-19.1215 99.459223 0.169869 8.265244 0.488117 16.358573 0.873903 23.925922-7.031137-4.177136-14.638395-8.591679-22.464641-12.969383-18.893302-10.562567-35.178197-18.706037-48.4075-24.204262-21.661346-9.001001-35.783994-11.353582-47.214325-7.866155-36.497239 11.129478-74.961272 16.771989-114.322745 16.771989-19.172665 0-38.392402-1.369184-57.122999-4.069689-12.343119-1.77646-23.795962 6.785543-25.576515 19.130709-1.778506 12.345166 6.785543 23.796986 19.130709 25.576515 20.85805 3.007497 42.24515 4.533246 63.568804 4.533246 43.249013 0 85.594447-6.139837 125.883035-18.247596 3.388167 0.400113 19.49296 3.669576 66.378803 30.257118 28.371164 16.089443 53.392024 32.43676 53.641711 32.600489l39.892569 26.109658-5.064342-47.406706c-0.031722-0.286526-3.078105-29.072129-3.937682-60.929698-1.461281-54.217832 4.634554-68.506257 5.8001-70.719668C933.519778 657.120169 966.37507 583.103408 966.419072 506.271532z" fill="#129d69" p-id="14278"></path><path d="M250.264369 396.874983c-23.820522 0.13303-43.052538 19.544125-42.964534 43.3626 0.132006 23.818475 19.541055 43.079144 43.360554 42.965557 23.820522-0.107447 43.052538-19.495006 42.964534-43.3626C293.537941 416.041508 274.08489 396.767536 250.264369 396.874983z" fill="#129d69" p-id="14279"></path><path d="M431.166485 396.874983c-23.819498 0.13303-43.098587 19.544125-42.965557 43.3626 0.089028 23.818475 19.498076 43.079144 43.318598 42.965557 23.820522-0.107447 43.054585-19.495006 42.965557-43.3626C474.397079 416.041508 454.985984 396.767536 431.166485 396.874983z" fill="#129d69" p-id="14280"></path><path d="M602.80768 396.874983c-23.819498 0.13303-43.052538 19.544125-42.964534 43.3626 0.132006 23.818475 19.497053 43.079144 43.318598 42.965557 23.863501-0.107447 43.096541-19.495006 42.964534-43.3626C646.038274 416.041508 626.627179 396.767536 602.80768 396.874983z" fill="#129d69" p-id="14281"></path></svg>