<?xml version="1.0" standalone="no"?><!DOCTYPE svg PUBLIC "-//W3C//DTD SVG 1.1//EN" "http://www.w3.org/Graphics/SVG/1.1/DTD/svg11.dtd"><svg t="1717903377657" class="icon" viewBox="0 0 1024 1024" version="1.1" xmlns="http://www.w3.org/2000/svg" p-id="25317" xmlns:xlink="http://www.w3.org/1999/xlink" width="200" height="200"><path d="M596.1 766.2c31.3-31.2 81.9-31.2 113.1 0l18.1 18.1 83.2-83.2V222.5c0-12-9.8-21.8-21.8-21.8h-68.3v30.9c0 33.1-26.9 60-60 60s-60-26.9-60-60v-30.9h-76v30.9c0 33.1-26.9 60-60 60s-60-26.9-60-60v-30.9h-76v30.9c0 33.1-26.9 60-60 60s-60-26.9-60-60v-30.9H122c-12 0-21.8 9.8-21.8 21.8v682.8c0 12 9.8 21.8 21.8 21.8h521.9l-47.8-47.8c-31.2-31.2-31.2-81.8 0-113.1z m92.2-156.4c-5.7 5.7-13.4 8.9-21.5 8.9H253.5c-16.8 0-30.3-13.6-30.3-30.3 0-16.8 13.6-30.4 30.3-30.4h413.3c16.8 0 30.3 13.6 30.3 30.4 0.1 8-3.1 15.7-8.8 21.4zM227.2 373.9c5.6-5.6 13.3-8.8 21.2-8.8h414c16.6 0 30 13.4 30 30s-13.4 30-30 30h-414c-16.6 0-30-13.4-30-30 0-7.9 3.2-15.5 8.8-21.2z m270.9 428.8c-5.6 5.6-13.3 8.8-21.2 8.8H248.4c-16.6 0-30-13.4-30-30s13.4-30 30-30h228.5c16.6 0 30 13.4 30 30 0 8-3.2 15.6-8.8 21.2z" p-id="25318" fill="#969799"></path><path d="M464.5 271.6c22.1 0 40-17.9 40-40V142c0-22.1-17.9-40-40-40s-40 17.9-40 40v89.6c0 22.1 17.9 40 40 40zM268.5 271.6c22.1 0 40-17.9 40-40V142c0-22.1-17.9-40-40-40s-40 17.9-40 40v89.6c0 22.1 17.9 40 40 40zM660.5 271.6c22.1 0 40-17.9 40-40V142c0-22.1-17.9-40-40-40s-40 17.9-40 40v89.6c0 22.1 17.9 40 40 40zM913.1 712.9c-11.7-11.7-30.7-11.7-42.4 0L749.8 833.8c-11.7 11.7-30.7 11.7-42.4 0l-32.2-32.3c-11.7-11.7-30.7-11.7-42.4 0s-11.7 30.7 0 42.4l53.5 53.5 21.2 21.2c11.7 11.7 30.7 11.7 42.4 0l21.2-21.2 142.1-142.1c11.6-11.7 11.6-30.7-0.1-42.4z" p-id="25319" fill="#969799"></path></svg>