<?xml version="1.0" standalone="no"?><!DOCTYPE svg PUBLIC "-//W3C//DTD SVG 1.1//EN" "http://www.w3.org/Graphics/SVG/1.1/DTD/svg11.dtd"><svg t="1717723420046" class="icon" viewBox="0 0 1024 1024" version="1.1" xmlns="http://www.w3.org/2000/svg" p-id="7799" xmlns:xlink="http://www.w3.org/1999/xlink" width="200" height="200"><path d="M594.266 92.86L94.094 484.421c-11.485 7.437-17.61 21.547-14.11 35.547 2.079 8.422 7.22 15.312 14 19.578l500.282 391.672c5.687 4.484 14.109 0.437 14.109-6.89v-56.876c0-5.36-2.516-10.5-6.672-13.781L214.297 550.484c-3.281-2.515-1.422-7.765 2.734-7.765H936.5c4.813 0 8.75-3.938 8.75-8.75v-43.75c0-4.813-3.938-8.75-8.75-8.75H217.031c-4.156 0-6.015-5.25-2.734-7.766l387.406-303.297c4.266-3.281 6.672-8.422 6.672-13.781V99.75c0-7.219-8.422-11.375-14.11-6.89z" fill="#777777" p-id="7800"></path></svg>