<?xml version="1.0" standalone="no"?><!DOCTYPE svg PUBLIC "-//W3C//DTD SVG 1.1//EN" "http://www.w3.org/Graphics/SVG/1.1/DTD/svg11.dtd"><svg t="1717903437371" class="icon" viewBox="0 0 1024 1024" version="1.1" xmlns="http://www.w3.org/2000/svg" p-id="28800" xmlns:xlink="http://www.w3.org/1999/xlink" width="200" height="200"><path d="M0 0h1024v1024H0z" fill="#969799" opacity=".01" p-id="28801"></path><path d="M34.133333 512C34.133333 248.081067 248.081067 34.133333 512 34.133333s477.866667 213.947733 477.866667 477.866667-213.947733 477.866667-477.866667 477.866667S34.133333 775.918933 34.133333 512z m443.733334 408.200533v-102.877866A307.336533 307.336533 0 0 1 206.677333 546.133333H103.765333C120.2176 745.130667 278.903467 903.7824 477.866667 920.200533z m68.266666 0c198.997333-16.418133 357.649067-175.104 374.0672-374.0672h-102.877866A307.336533 307.336533 0 0 1 546.133333 817.322667v102.877866zM920.200533 477.866667C903.7824 278.869333 745.096533 120.2176 546.133333 103.799467v102.877866A307.336533 307.336533 0 0 1 817.322667 477.866667h102.877866zM477.866667 103.799467C278.869333 120.2176 120.2176 278.903467 103.799467 477.866667h102.877866A307.336533 307.336533 0 0 1 477.866667 206.677333V103.765333zM512 409.6a102.4 102.4 0 1 0 0 204.8 102.4 102.4 0 0 0 0-204.8z m-170.666667 102.4a170.666667 170.666667 0 1 1 341.333334 0 170.666667 170.666667 0 0 1-341.333334 0z m170.666667-238.933333a238.933333 238.933333 0 1 0 0 477.866666 238.933333 238.933333 0 0 0 0-477.866666z" fill="#969799" p-id="28802"></path></svg>