{
  "accessors": [
    {
      "bufferView": 2,
      "componentType": 5126,
      "count": 1557,
      "max": [
        0.6622569561004639,
        -4.1331562995910645,
        -3.8838815689086914
      ],
      "min": [
        0.35672080516815186,
        -5.229061126708984,
        -4.358006477355957
      ],
      "type": "VEC3"
    },
    {
      "bufferView": 2,
      "byteOffset": 18684,
      "componentType": 5126,
      "count": 1557,
      "max": [
        0.9984143972396851,
        0.9986645579338074,
        0.9981792569160461
      ],
      "min": [
        -0.9998125433921814,
        -0.9961028695106506,
        -0.9999250173568726
      ],
      "type": "VEC3"
    },
    {
      "bufferView": 1,
      "componentType": 5126,
      "count": 1557,
      "max": [
        0.9999064207077026,
        0.9999409317970276
      ],
      "min": [
        2.885858339141123e-05,
        1.658002656768076e-05
      ],
      "type": "VEC2"
    },
    {
      "bufferView": 0,
      "componentType": 5125,
      "count": 8082,
      "type": "SCALAR"
    },
    {
      "bufferView": 2,
      "byteOffset": 37368,
      "componentType": 5126,
      "count": 65532,
      "max": [
        6.69163179397583,
        -1.9233911037445068,
        1.2629220485687256
      ],
      "min": [
        0.2268664836883545,
        -5.89254903793335,
        -4.641124248504639
      ],
      "type": "VEC3"
    },
    {
      "bufferView": 2,
      "byteOffset": 823752,
      "componentType": 5126,
      "count": 65532,
      "max": [
        0.9999864101409912,
        0.9998227953910828,
        0.9999958872795105
      ],
      "min": [
        -0.999991238117218,
        -0.9999219179153442,
        -0.9999997615814209
      ],
      "type": "VEC3"
    },
    {
      "bufferView": 1,
      "byteOffset": 12456,
      "componentType": 5126,
      "count": 65532,
      "max": [
        0.9999571442604065,
        0.954540491104126
      ],
      "min": [
        6.446106908697402e-06,
        0.045476168394088745
      ],
      "type": "VEC2"
    },
    {
      "bufferView": 0,
      "byteOffset": 32328,
      "componentType": 5125,
      "count": 331554,
      "type": "SCALAR"
    },
    {
      "bufferView": 2,
      "byteOffset": 1610136,
      "componentType": 5126,
      "count": 56215,
      "max": [
        4.139216899871826,
        -1.6434404850006104,
        -1.5305876731872559
      ],
      "min": [
        0.07956409454345703,
        -5.784909725189209,
        -5.124585151672363
      ],
      "type": "VEC3"
    },
    {
      "bufferView": 2,
      "byteOffset": 2284716,
      "componentType": 5126,
      "count": 56215,
      "max": [
        0.9999942779541016,
        0.9999815821647644,
        0.9999883770942688
      ],
      "min": [
        -0.999911367893219,
        -0.999904990196228,
        -0.9999158382415771
      ],
      "type": "VEC3"
    },
    {
      "bufferView": 1,
      "byteOffset": 536712,
      "componentType": 5126,
      "count": 56215,
      "max": [
        0.9999291300773621,
        0.590889036655426
      ],
      "min": [
        1.045045519276755e-05,
        5.657022938976297e-06
      ],
      "type": "VEC2"
    },
    {
      "bufferView": 0,
      "byteOffset": 1358544,
      "componentType": 5125,
      "count": 278760,
      "type": "SCALAR"
    },
    {
      "bufferView": 2,
      "byteOffset": 2959296,
      "componentType": 5126,
      "count": 61633,
      "max": [
        11.52176284790039,
        3.8170461654663086,
        2.3375463485717773
      ],
      "min": [
        1.231734275817871,
        -7.006593227386475,
        -7.18924617767334
      ],
      "type": "VEC3"
    },
    {
      "bufferView": 2,
      "byteOffset": 3698892,
      "componentType": 5126,
      "count": 61633,
      "max": [
        0.9999874830245972,
        0.9999716281890869,
        0.9999440908432007
      ],
      "min": [
        -0.9997991919517517,
        -0.9998219013214111,
        -0.9999315738677979
      ],
      "type": "VEC3"
    },
    {
      "bufferView": 1,
      "byteOffset": 986432,
      "componentType": 5126,
      "count": 61633,
      "max": [
        0.999995231628418,
        0.9374895691871643
      ],
      "min": [
        2.477318048477173e-07,
        7.033348083496094e-06
      ],
      "type": "VEC2"
    },
    {
      "bufferView": 0,
      "byteOffset": 2473584,
      "componentType": 5125,
      "count": 305580,
      "type": "SCALAR"
    }
  ],
  "asset": {
    "extras": {
      "author": "barontieri (https://sketchfab.com/barontieri)",
      "license": "CC-BY-4.0 (http://creativecommons.org/licenses/by/4.0/)",
      "source": "https://sketchfab.com/3d-models/giant-salamander-898c4d50fddc458b88b37b2cb4378b4c",
      "title": "Giant_Salamander"
    },
    "generator": "Sketchfab-12.68.0",
    "version": "2.0"
  },
  "bufferViews": [
    {
      "buffer": 0,
      "byteLength": 3695904,
      "name": "floatBufferViews",
      "target": 34963
    },
    {
      "buffer": 0,
      "byteLength": 1479496,
      "byteOffset": 3695904,
      "byteStride": 8,
      "name": "floatBufferViews",
      "target": 34962
    },
    {
      "buffer": 0,
      "byteLength": 4438488,
      "byteOffset": 5175400,
      "byteStride": 12,
      "name": "floatBufferViews",
      "target": 34962
    }
  ],
  "buffers": [
    {
      "byteLength": 9613888,
      "uri": "scene.bin"
    }
  ],
  "images": [
    {
      "uri": "textures/eyes_2182_mtl_baseColor.png"
    },
    {
      "uri": "textures/eyes_2182_mtl_metallicRoughness.png"
    },
    {
      "uri": "textures/Salamander_mtl_baseColor.png"
    },
    {
      "uri": "textures/Salamander_mtl_metallicRoughness.png"
    },
    {
      "uri": "textures/Rocks_mtl_baseColor.png"
    },
    {
      "uri": "textures/Rocks_mtl_metallicRoughness.png"
    }
  ],
  "materials": [
    {
      "doubleSided": true,
      "name": "eyes_2182_mtl",
      "pbrMetallicRoughness": {
        "baseColorTexture": {
          "index": 0
        },
        "metallicFactor": 0.27443181818181817,
        "metallicRoughnessTexture": {
          "index": 1
        },
        "roughnessFactor": 0.12291666666666666
      }
    },
    {
      "doubleSided": true,
      "name": "Salamander_mtl",
      "pbrMetallicRoughness": {
        "baseColorTexture": {
          "index": 2
        },
        "metallicFactor": 0.0,
        "metallicRoughnessTexture": {
          "index": 3
        },
        "roughnessFactor": 0.15587121212121213
      }
    },
    {
      "doubleSided": true,
      "name": "Rocks_mtl",
      "pbrMetallicRoughness": {
        "baseColorTexture": {
          "index": 4
        },
        "metallicFactor": 0.0,
        "metallicRoughnessTexture": {
          "index": 5
        }
      }
    }
  ],
  "meshes": [
    {
      "name": "eyes_2182_eyes_2182_mtl_0",
      "primitives": [
        {
          "attributes": {
            "NORMAL": 1,
            "POSITION": 0,
            "TEXCOORD_0": 2
          },
          "indices": 3,
          "material": 0,
          "mode": 4
        }
      ]
    },
    {
      "name": "Salamander_Salamander_mtl_0",
      "primitives": [
        {
          "attributes": {
            "NORMAL": 5,
            "POSITION": 4,
            "TEXCOORD_0": 6
          },
          "indices": 7,
          "material": 1,
          "mode": 4
        }
      ]
    },
    {
      "name": "Salamander_Salamander_mtl_0",
      "primitives": [
        {
          "attributes": {
            "NORMAL": 9,
            "POSITION": 8,
            "TEXCOORD_0": 10
          },
          "indices": 11,
          "material": 1,
          "mode": 4
        }
      ]
    },
    {
      "name": "Rocks_Rocks_mtl_0",
      "primitives": [
        {
          "attributes": {
            "NORMAL": 13,
            "POSITION": 12,
            "TEXCOORD_0": 14
          },
          "indices": 15,
          "material": 2,
          "mode": 4
        }
      ]
    }
  ],
  "nodes": [
    {
      "children": [
        1
      ],
      "matrix": [
        0.9556114673614502,
        -0.2078030109405517,
        -0.20886518061161047,
        0.0,
        0.28093793988227844,
        0.4290769994258879,
        0.8584676980972291,
        0.0,
        -0.08877293020486832,
        -0.8790397047996522,
        0.4684106409549711,
        0.0,
        0.05037466436624527,
        5.199127674102784,
        -2.768248081207274,
        1.0
      ],
      "name": "Sketchfab_model"
    },
    {
      "children": [
        2
      ],
      "matrix": [
        1.0,
        0.0,
        0.0,
        0.0,
        0.0,
        -1.0,
        0.0,
        0.0,
        0.0,
        0.0,
        -1.0,
        0.0,
        0.0,
        0.0,
        0.0,
        1.0
      ],
      "name": "6e726c01f3b9472b91a4a9817a1b7095.fbx"
    },
    {
      "children": [
        3,
        5,
        8
      ],
      "name": "RootNode"
    },
    {
      "children": [
        4
      ],
      "name": "eyes_2182"
    },
    {
      "mesh": 0,
      "name": "eyes_2182_eyes_2182_mtl_0"
    },
    {
      "children": [
        6,
        7
      ],
      "name": "Salamander"
    },
    {
      "mesh": 1,
      "name": "Salamander_Salamander_mtl_0"
    },
    {
      "mesh": 2,
      "name": "Salamander_Salamander_mtl_0"
    },
    {
      "children": [
        9
      ],
      "name": "Rocks"
    },
    {
      "mesh": 3,
      "name": "Rocks_Rocks_mtl_0"
    }
  ],
  "samplers": [
    {
      "magFilter": 9729,
      "minFilter": 9987,
      "wrapS": 10497,
      "wrapT": 10497
    }
  ],
  "scene": 0,
  "scenes": [
    {
      "name": "Sketchfab_Scene",
      "nodes": [
        0
      ]
    }
  ],
  "textures": [
    {
      "sampler": 0,
      "source": 0
    },
    {
      "sampler": 0,
      "source": 1
    },
    {
      "sampler": 0,
      "source": 2
    },
    {
      "sampler": 0,
      "source": 3
    },
    {
      "sampler": 0,
      "source": 4
    },
    {
      "sampler": 0,
      "source": 5
    }
  ]
}
